<svg width="58" height="58" viewBox="0 0 58 58" fill="none" xmlns="http://www.w3.org/2000/svg">
<path d="M25.2052 19.6756C24.9476 19.663 24.6914 19.7185 24.4622 19.8364H24.0155L24.2339 19.982C24.0914 20.0927 23.9699 20.2291 23.8763 20.385C23.7396 20.6124 23.6672 20.8725 23.6667 21.1378V21.1387V36.8616V36.8625C23.6672 37.1278 23.7396 37.388 23.8763 37.6153L24.3048 37.3578L23.8763 37.6153C24.0129 37.8427 24.2087 38.0288 24.4427 38.1537C24.6767 38.2786 24.9403 38.3377 25.2052 38.3247L25.1807 37.8253L25.2052 38.3247C25.4702 38.3117 25.7267 38.2271 25.9473 38.0798L37.7378 30.2212C37.939 30.0873 38.1039 29.9058 38.218 29.6927C38.3322 29.4797 38.3919 29.2418 38.3919 29.0002C38.3919 28.7585 38.3322 28.5206 38.218 28.3076C38.1039 28.0946 37.939 27.913 37.7378 27.7792L27.3194 20.8364H27.3202L25.9473 19.9205C25.7267 19.7733 25.4702 19.6886 25.2052 19.6756ZM29 52.6668C15.9289 52.6668 5.33334 42.0713 5.33334 29.0002C5.33334 15.9291 15.9289 5.3335 29 5.3335C42.0711 5.3335 52.6667 15.9291 52.6667 29.0002C52.6667 42.0713 42.0711 52.6668 29 52.6668Z" fill="#57007B" stroke="white"/>
</svg>
